HIERARCHY
ROOT Hips
{
 OFFSET 0.000000 0.000000 0.000000
 CHANNELS 6 Xposition Yposition Zposition Yrotation Xrotation Zrotation
 JOINT Chest
 {
  OFFSET 0.000000 10.383400 0.001500
  CHANNELS 3 Yrotation Xrotation Zrotation
  JOINT Chest2
  {
   OFFSET 0.000000 10.418200 -0.003100
   CHANNELS 3 Yrotation Xrotation Zrotation
   JOINT Chest3
   {
    OFFSET 0.000000 10.375100 0.000000
    CHANNELS 3 Yrotation Xrotation Zrotation
    JOINT Chest4
    {
     OFFSET 0.000000 10.364600 0.000000
     CHANNELS 3 Yrotation Xrotation Zrotation
     JOINT Neck
     {
      OFFSET 0.000000 15.642200 0.000000
      CHANNELS 3 Yrotation Xrotation Zrotation
      JOINT Head
      {
       OFFSET 0.000000 9.697300 -0.006500
       CHANNELS 3 Yrotation Xrotation Zrotation
       End Site
       {
        OFFSET 0.000000 18.492200 -0.003400
       }
      }
     }
     JOINT RightCollar
     {
      OFFSET -3.166800 10.349300 0.000000
      CHANNELS 3 Yrotation Xrotation Zrotation
      JOINT RightShoulder
      {
       OFFSET -14.729700 0.000000 0.000000
       CHANNELS 3 Yrotation Xrotation Zrotation
       JOINT RightElbow
       {
        OFFSET 0.000000 -32.224300 0.000000
        CHANNELS 3 Yrotation Xrotation Zrotation
        JOINT RightWrist
        {
         OFFSET 0.000000 -26.084100 0.000000
         CHANNELS 3 Yrotation Xrotation Zrotation
         End Site
         {
          OFFSET 0.000000 -19.319400 0.000000
         }
        }
       }
      }
     }
     JOINT LeftCollar
     {
      OFFSET 3.166800 10.349300 0.000000
      CHANNELS 3 Yrotation Xrotation Zrotation
      JOINT LeftShoulder
      {
       OFFSET 14.729700 0.000000 0.000000
       CHANNELS 3 Yrotation Xrotation Zrotation
       JOINT LeftElbow
       {
        OFFSET 0.000000 -32.224300 0.000000
        CHANNELS 3 Yrotation Xrotation Zrotation
        JOINT LeftWrist
        {
         OFFSET 0.000000 -26.084100 0.000000
         CHANNELS 3 Yrotation Xrotation Zrotation
         End Site
         {
          OFFSET 0.000000 -19.319400 0.000000
         }
        }
       }
      }
     }
    }
   }
  }
 }
 JOINT RightHip
 {
  OFFSET -8.428900 -0.007500 -0.000800
  CHANNELS 3 Yrotation Xrotation Zrotation
  JOINT RightKnee
  {
   OFFSET 0.000000 -43.834600 0.000700
   CHANNELS 3 Yrotation Xrotation Zrotation
   JOINT RightAnkle
   {
    OFFSET 0.000000 -42.757000 0.001200
    CHANNELS 3 Yrotation Xrotation Zrotation
    JOINT RightToe
    {
     OFFSET 0.000000 -6.946900 15.649300
     CHANNELS 3 Yrotation Xrotation Zrotation
     End Site
     {
      OFFSET 0.000000 -1.580800 6.825800
     }
    }
   }
  }
 }
 JOINT LeftHip
 {
  OFFSET 8.428900 -0.007500 -0.000800
  CHANNELS 3 Yrotation Xrotation Zrotation
  JOINT LeftKnee
  {
   OFFSET 0.000000 -43.834600 0.000700
   CHANNELS 3 Yrotation Xrotation Zrotation
   JOINT LeftAnkle
   {
    OFFSET 0.000000 -42.757000 0.001200
    CHANNELS 3 Yrotation Xrotation Zrotation
    JOINT LeftToe
    {
     OFFSET 0.000000 -6.946900 15.649300
     CHANNELS 3 Yrotation Xrotation Zrotation
     End Site
     {
      OFFSET 0.000000 -1.580800 6.825800
     }
    }
   }
  }
 }
}
MOTION
Frames: 15
Frame Time: 0.008333
-0.770923 125.880410 -5.263257 176.222941 -11.985422 -2.504233 -3.066488 16.830738 -2.213136 -0.288378 1.775079 -0.189285 -0.483807 2.956598 -0.320396 -2.644223 14.795259 -1.896319 -9.199666 6.625447 4.321909 -11.886161 -18.754878 7.446922 2.144389 -9.808052 -12.546532 -0.645361 -30.588349 -45.314835 97.953406 -73.302428 -106.789323 2.364238 -0.407317 -56.213172 -0.731970 -5.438195 2.383271 0.608133 -12.400874 13.703770 4.043695 -66.735230 -29.781797 -7.416083 -5.388440 27.539234 8.499283 -59.806982 2.699821 -23.663317 78.867365 -23.138992 -7.262697 -19.607264 9.462081 0.026634 -0.030787 0.011817 -1.793560 -61.892728 -2.148995 109.610682 80.631491 113.848331 8.682507 -0.239736 -3.880655 0.046863 0.019176 0.020809
-0.768663 125.873372 -5.273858 176.206812 -11.890856 -2.480362 -3.021682 16.854178 -2.250551 -0.283384 1.778496 -0.193715 -0.475474 2.962025 -0.327641 -2.603481 14.809377 -1.927380 -9.217087 6.618679 4.352640 -11.918264 -18.761687 7.489788 2.017401 -9.836026 -12.419932 -1.214001 -30.915814 -44.866401 99.807783 -72.834814 -109.527213 2.433309 -0.217085 -56.614494 -0.737466 -5.452351 2.446653 0.573142 -12.423348 13.790959 4.563763 -66.827071 -30.418254 -7.393697 -5.362325 27.578630 8.502664 -59.885364 2.660025 -23.587961 78.852472 -23.082513 -7.268989 -19.599767 9.489399 0.037177 -0.033953 0.016494 -1.927202 -62.023910 -2.075439 109.732716 80.583619 113.908212 8.725156 -0.156517 -3.843449 0.029665 0.014391 0.013171
-0.768899 125.865951 -5.282552 176.197108 -11.784739 -2.442606 -2.973985 16.863886 -2.298145 -0.278374 1.781291 -0.198107 -0.467257 2.966427 -0.334880 -2.563704 14.820948 -1.958751 -9.235394 6.613973 4.376265 -11.949054 -18.766268 7.524249 1.920830 -9.875540 -12.299898 -1.730727 -31.285174 -44.429433 101.069993 -72.379905 -111.635690 2.503346 -0.030825 -57.055638 -0.727624 -5.469145 2.514279 0.537185 -12.450954 13.855964 5.016447 -66.910276 -31.008341 -7.370051 -5.345665 27.632134 8.376780 -59.956940 2.664780 -23.169855 78.851572 -22.734035 -7.220514 -19.628094 9.500679 0.002335 -0.014047 0.001036 -2.041735 -62.165147 -2.032110 109.837586 80.534757 113.948374 8.768965 -0.072678 -3.791269 0.009063 0.007140 0.004023
-0.765094 125.858941 -5.290780 176.197582 -11.679976 -2.426747 -2.912260 16.873170 -2.321770 -0.272793 1.783982 -0.202803 -0.458084 2.970800 -0.342577 -2.519372 14.832515 -1.992001 -9.258269 6.611026 4.396969 -11.984504 -18.768789 7.556570 1.843468 -9.926377 -12.179549 -2.146632 -31.659971 -44.052123 101.714374 -71.987894 -113.123929 2.579019 0.123730 -57.571466 -0.719972 -5.486273 2.591081 0.502418 -12.484538 13.900365 5.393013 -66.992177 -31.532388 -7.350265 -5.331571 27.686351 8.302657 -60.034681 2.638453 -23.084204 78.804801 -22.622862 -7.190231 -19.617895 9.546022 0.019606 -0.012083 0.008702 -2.173820 -62.296953 -1.967989 109.889763 80.499640 113.961024 8.796671 0.000903 -3.749327 0.006355 0.009568 0.002822
-0.760243 125.852531 -5.299860 176.208667 -11.584997 -2.414883 -2.848282 16.890017 -2.341367 -0.266554 1.787331 -0.207917 -0.447745 2.976293 -0.351025 -2.469272 14.846692 -2.027891 -9.283604 6.608446 4.416551 -12.022677 -18.770878 7.588324 1.789725 -9.991501 -12.060400 -2.419951 -32.021711 -43.772342 101.720106 -71.700772 -113.994814 2.653712 0.201247 -58.186280 -0.719282 -5.504315 2.673221 0.470975 -12.527379 13.926105 5.693905 -67.073977 -31.980895 -7.338158 -5.315547 27.731933 8.305516 -60.112359 2.575220 -23.049073 78.776442 -22.560525 -7.217920 -19.593918 9.585172 0.068066 -0.030017 0.030200 -2.323716 -62.416177 -1.901192 109.891921 80.477595 113.934693 8.831175 0.080840 -3.718769 0.012370 0.013248 0.005493
-0.760596 125.846437 -5.309738 176.212675 -11.499801 -2.367828 -2.783413 16.915014 -2.396402 -0.259730 1.791973 -0.213453 -0.436453 2.983665 -0.360161 -2.413906 14.865460 -2.066049 -9.307324 6.604889 4.437997 -12.059484 -18.774008 7.621857 1.773421 -10.079391 -11.947446 -2.548231 -32.387864 -43.575022 101.112321 -71.523677 -114.246724 2.712724 0.180076 -58.897959 -0.724065 -5.528521 2.756542 0.442178 -12.579477 13.939701 5.927451 -67.158745 -32.361714 -7.329762 -5.293963 27.763621 8.184248 -60.160211 2.527925 -22.572517 78.772409 -22.108134 -7.129330 -19.612974 9.546449 0.041037 -0.021970 0.018210 -2.363741 -62.519479 -1.927111 109.914706 80.454080 113.921333 8.861894 0.137711 -3.658538 0.009081 0.017947 0.004032
-0.759735 125.840454 -5.317211 176.225891 -11.410341 -2.324301 -2.725623 16.936908 -2.451732 -0.252042 1.797805 -0.219561 -0.423718 2.992962 -0.370147 -2.350932 14.888802 -2.107123 -9.328865 6.603788 4.466273 -12.095405 -18.774231 7.662700 1.794426 -10.184375 -11.845953 -2.555130 -32.785664 -43.419326 99.964787 -71.453758 -113.908796 2.759534 0.076706 -59.685262 -0.741255 -5.561997 2.841865 0.351537 -12.661346 13.974183 6.166563 -67.206921 -32.694699 -7.323859 -5.270667 27.778350 8.121779 -60.218784 2.439519 -22.269228 78.762341 -21.796794 -7.039527 -19.635084 9.509074 0.018796 -0.010552 0.008342 -2.462646 -62.622723 -1.929157 109.887436 80.436155 113.873861 8.906164 0.202738 -3.670176 0.004708 0.006515 0.002090
-0.752871 125.836575 -5.330646 176.224486 -11.368109 -2.302246 -2.647643 17.002634 -2.486555 -0.243530 1.804165 -0.226101 -0.409642 3.003226 -0.380840 -2.281385 14.914230 -2.150688 -9.346777 6.611512 4.501348 -12.127965 -18.764373 7.709930 1.848132 -10.285681 -11.764555 -2.445709 -33.224862 -43.301569 98.336941 -71.515633 -113.021899 2.820997 -0.079596 -60.513203 -0.767881 -5.600234 2.925895 0.339806 -12.697208 13.989470 6.287246 -67.319459 -32.972433 -7.322188 -5.255036 27.781293 8.070771 -60.230985 2.374720 -22.047779 78.743020 -21.544368 -6.976115 -19.652125 9.544824 0.018654 -0.015238 0.008279 -2.637795 -62.681087 -1.860499 109.916797 80.413053 113.872241 8.999295 0.285746 -3.642250 0.005751 0.007576 0.002553
-0.748256 125.831522 -5.335264 176.203266 -11.288070 -2.260468 -2.565488 17.019637 -2.536198 -0.234470 1.810234 -0.232641 -0.394648 3.012941 -0.391605 -2.207753 14.938504 -2.193959 -9.360169 6.633305 4.538102 -12.153870 -18.738625 7.756647 1.940089 -10.364452 -11.713709 -2.199038 -33.711675 -43.258735 96.155598 -71.735104 -111.511976 2.904171 -0.279434 -61.337669 -0.794417 -5.634275 2.998612 0.300731 -12.725970 14.023417 6.390682 -67.436031 -33.215342 -7.325130 -5.249562 27.777569 8.103296 -60.283339 2.232788 -21.846056 78.721135 -21.292156 -6.890021 -19.662190 9.545238 0.019183 -0.013310 0.008514 -2.742813 -62.777739 -1.841255 109.965606 80.408852 113.912579 9.098284 0.370793 -3.625386 0.018843 0.010875 0.008366
-0.742285 125.827399 -5.340067 176.165029 -11.223208 -2.216581 -2.474039 17.038283 -2.582348 -0.262039 1.774878 -0.221667 -0.341512 3.060385 -0.420725 -2.127600 14.958351 -2.235163 -9.374889 6.673062 4.573779 -12.179071 -18.692522 7.800997 2.071576 -10.409526 -11.696455 -1.794864 -34.254299 -43.324744 93.228903 -72.118929 -109.179442 2.986913 -0.545989 -62.126253 -0.823483 -5.650653 3.057293 0.201052 -12.772330 14.087248 6.501020 -67.535020 -33.429774 -7.332074 -5.249485 27.769527 8.194602 -60.323671 2.047652 -21.667627 78.699174 -21.035683 -6.805647 -19.658506 9.528263 0.030440 -0.018431 0.013508 -2.853711 -62.859838 -1.803178 110.044174 80.396444 113.971803 9.172966 0.431906 -3.625347 0.034171 0.017572 0.015173
-0.738432 125.824079 -5.344645 176.120786 -11.170271 -2.154493 -2.383387 17.052288 -2.641248 -0.232955 1.800323 -0.236600 -0.341508 3.043384 -0.420379 -2.041072 14.973175 -2.272279 -9.397406 6.731065 4.606117 -12.210972 -18.625714 7.842227 2.242378 -10.418435 -11.712991 -1.207727 -34.845125 -43.521789 89.266976 -72.635855 -105.732553 3.053126 -0.902983 -62.847735 -0.857975 -5.638203 3.105975 0.070395 -12.838654 14.164295 6.586957 -67.627251 -33.606806 -7.341060 -5.250392 27.751159 8.384614 -60.355095 1.769748 -21.526067 78.686750 -20.776326 -6.701846 -19.682424 9.510754 0.022206 -0.009810 0.009856 -2.948144 -62.930234 -1.775684 110.104040 80.359692 113.971748 9.256517 0.486833 -3.578829 -0.000157 0.009285 -0.000070
-0.729744 125.822106 -5.349251 176.074421 -11.134371 -2.113968 -2.285348 17.066873 -2.668790 -0.202943 1.820406 -0.249786 -0.342303 3.029271 -0.419496 -1.953707 14.984925 -2.302588 -9.428475 6.805439 4.628565 -12.248830 -18.540499 7.872862 2.460262 -10.394972 -11.766829 -0.393065 -35.459949 -43.876976 83.877987 -73.175667 -100.810693 3.098148 -1.319377 -63.412005 -0.888753 -5.597973 3.138375 -0.080069 -12.933432 14.245020 6.653868 -67.701663 -33.754077 -7.354171 -5.248571 27.713162 8.598467 -60.369595 1.471868 -21.352075 78.674637 -20.448253 -6.599758 -19.705270 9.489698 0.021354 -0.012912 0.009477 -3.109872 -62.981287 -1.687342 110.272027 80.353674 114.128695 9.340625 0.531378 -3.620723 0.007963 0.002911 0.003535
-0.718092 125.821623 -5.354554 176.048138 -11.118556 -2.089390 -2.235463 17.071692 -2.683781 -0.197628 1.821368 -0.252007 -0.293125 3.046641 -0.427527 -1.869060 14.995025 -2.326339 -9.466465 6.896871 4.635760 -12.288821 -18.436121 7.885945 2.726957 -10.346635 -11.858908 0.686369 -36.079581 -44.417620 76.722257 -73.584515 -94.076643 3.114965 -1.719833 -63.716812 -0.910785 -5.538648 3.147015 -0.236782 -13.045304 14.323310 6.722695 -67.756833 -33.893061 -7.373446 -5.238537 27.653494 8.801207 -60.360410 1.161540 -21.131846 78.664826 -20.050865 -6.487128 -19.741378 9.463732 0.017049 -0.019236 0.007566 -3.340523 -63.008137 -1.545730 110.466942 80.341751 114.308822 9.412814 0.556259 -3.708668 0.012317 -0.000787 0.005468
-0.707281 125.822039 -5.358078 176.019267 -11.108850 -2.056802 -2.187035 17.078224 -2.704045 -0.148213 1.835878 -0.248660 -0.292727 3.040195 -0.430951 -1.785547 15.004088 -2.344514 -9.509947 7.006927 4.626210 -12.328435 -18.310912 7.879129 3.026900 -10.284783 -11.988641 2.033399 -36.707554 -45.158280 67.732014 -73.683806 -85.390087 3.100355 -2.006301 -63.728882 -0.933129 -5.467932 3.136468 -0.386455 -13.152479 14.394815 6.816333 -67.800514 -34.044235 -7.392067 -5.214059 27.572819 9.016272 -60.345483 0.831963 -20.854534 78.661391 -19.594862 -6.373724 -19.776267 9.418875 0.011885 -0.022245 0.005274 -3.574372 -63.025219 -1.391872 110.644682 80.317616 114.447058 9.464712 0.565665 -3.776716 0.007237 -0.000134 0.003212
-0.698086 125.823388 -5.359958 175.963520 -11.106833 -2.007493 -2.046209 17.103611 -2.691055 -0.171528 1.824968 -0.260144 -0.290267 3.036668 -0.436183 -1.698753 15.012913 -2.357686 -9.558224 7.135450 4.600478 -12.367093 -18.165204 7.852885 3.333651 -10.218183 -12.153642 3.615988 -37.375502 -46.084696 57.334569 -73.237808 -75.081517 3.033199 -2.102529 -63.423717 -0.971094 -5.390578 3.116213 -0.523545 -13.297639 14.458643 6.920499 -67.781720 -34.202861 -7.401954 -5.170836 27.480636 9.256638 -60.329104 0.498976 -20.520063 78.666929 -19.093427 -6.268524 -19.792620 9.342164 0.008446 -0.018215 0.003748 -3.770017 -63.029543 -1.244711 110.837615 80.295503 114.593499 9.514881 0.569653 -3.812629 0.011524 0.004682 0.005116
